<svg width="40" height="40" viewBox="0 0 40 40" fill="none" xmlns="http://www.w3.org/2000/svg">
<g clip-path="url(#clip0_80_12)">
<rect width="40" height="40" fill="#EBECEE"/>
<path d="M32.0804 10.2984C33.7971 12.1218 34.7188 14.1668 34.7188 17.4818C34.7188 23.3151 30.6238 28.5434 24.6688 31.1284L23.1804 28.8318C28.7387 25.8251 29.8254 21.9234 30.2587 19.4634C29.3637 19.9268 28.1921 20.0884 27.0438 19.9818C24.0371 19.7034 21.6671 17.2351 21.6671 14.1668C21.6671 12.6197 22.2817 11.1359 23.3756 10.042C24.4696 8.948 25.9533 8.33342 27.5004 8.33342C29.2888 8.33342 30.9987 9.15009 32.0804 10.2984ZM15.4138 10.2984C17.1304 12.1218 18.0521 14.1668 18.0521 17.4818C18.0521 23.3151 13.9571 28.5434 8.00208 31.1284L6.51375 28.8318C12.0721 25.8251 13.1588 21.9234 13.5921 19.4634C12.6971 19.9268 11.5254 20.0884 10.3771 19.9818C7.37042 19.7034 5.00042 17.2351 5.00042 14.1668C5.00042 12.6197 5.615 11.1359 6.70896 10.042C7.80292 8.948 9.28666 8.33342 10.8338 8.33342C12.6221 8.33342 14.3321 9.15009 15.4138 10.2984Z" fill="black"/>
</g>
<defs>
<clipPath id="clip0_80_12">
<rect width="40" height="40" fill="white"/>
</clipPath>
</defs>
</svg>
