<svg width="40" height="40" viewBox="0 0 40 40" fill="none" xmlns="http://www.w3.org/2000/svg">
<g clip-path="url(#clip0_80_12)">
<rect width="40" height="40" fill="#EBECEE"/>
<path d="M7.63833 29.1635C5.92167 27.3402 5 25.2952 5 21.9802C5 16.1468 9.095 10.9185 15.05 8.3335L16.5383 10.6302C10.98 13.6368 9.89333 17.5385 9.46 19.9985C10.355 19.5352 11.5267 19.3735 12.675 19.4802C15.6817 19.7585 18.0517 22.2268 18.0517 25.2952C18.0517 26.8423 17.4371 28.326 16.3431 29.42C15.2492 30.5139 13.7654 31.1285 12.2183 31.1285C10.43 31.1285 8.72 30.3118 7.63833 29.1635ZM24.305 29.1635C22.5883 27.3402 21.6667 25.2952 21.6667 21.9802C21.6667 16.1468 25.7617 10.9185 31.7167 8.3335L33.205 10.6302C27.6467 13.6368 26.56 17.5385 26.1267 19.9985C27.0217 19.5352 28.1933 19.3735 29.3417 19.4802C32.3483 19.7585 34.7183 22.2268 34.7183 25.2952C34.7183 26.8423 34.1038 28.326 33.0098 29.42C31.9158 30.5139 30.4321 31.1285 28.885 31.1285C27.0967 31.1285 25.3867 30.3118 24.305 29.1635Z" fill="black"/>
</g>
<defs>
<clipPath id="clip0_80_12">
<rect width="40" height="40" fill="white"/>
</clipPath>
</defs>
</svg>
